<?xml version="1.0" encoding="UTF-8" standalone="no"?>
<!-- Created with Inkscape (http://www.inkscape.org/) -->

<svg
   width="512"
   height="512"
   viewBox="0 0 135.46667 135.46667"
   version="1.1"
   id="svg1"
   inkscape:version="1.3.2 (091e20e, 2023-11-25, custom)"
   sodipodi:docname="Yin_Yang.svg"
   xmlns:inkscape="http://www.inkscape.org/namespaces/inkscape"
   xmlns:sodipodi="http://sodipodi.sourceforge.net/DTD/sodipodi-0.dtd"
   xmlns="http://www.w3.org/2000/svg"
   xmlns:svg="http://www.w3.org/2000/svg">
  <sodipodi:namedview
     id="namedview1"
     pagecolor="#ffffff"
     bordercolor="#999999"
     borderopacity="1"
     inkscape:showpageshadow="2"
     inkscape:pageopacity="0"
     inkscape:pagecheckerboard="0"
     inkscape:deskcolor="#d1d1d1"
     inkscape:document-units="mm"
     showborder="false"
     inkscape:zoom="1.6347656"
     inkscape:cx="256"
     inkscape:cy="255.3883"
     inkscape:window-width="1920"
     inkscape:window-height="1051"
     inkscape:window-x="-9"
     inkscape:window-y="-9"
     inkscape:window-maximized="1"
     inkscape:current-layer="layer1" />
  <defs
     id="defs1" />
  <g
     inkscape:label="Layer 1"
     inkscape:groupmode="layer"
     id="layer1">
    <g
       id="g9"
       transform="translate(1.4064128,-0.17173617)"
       style="fill:#f9f9f9">
      <path
         d="m 66.326921,28.425289 c -21.80404,0 -39.47978,17.675743 -39.47978,39.479779 0,21.804038 17.67574,39.479782 39.47978,39.479782 21.80404,0 39.479779,-17.675744 39.479779,-39.479782 0,-21.804036 -17.675739,-39.479779 -39.479779,-39.479779 z m 0,5.639969 c 18.68917,0 33.839809,15.150636 33.839809,33.83981 0,18.397158 -14.683629,33.354512 -32.969139,33.817782 8.93993,-0.45317 16.04924,-7.845324 16.04924,-16.897874 0,-9.34457 -7.57534,-16.919908 -16.91991,-16.919908 -9.34457,0 -16.91991,-7.575339 -16.91991,-16.919905 0,-9.052551 7.10931,-16.444708 16.04924,-16.897875 0.29025,-0.0074 0.57865,-0.02203 0.87067,-0.02203 z m -2.57411,0.107511 c -3.94778,0.297118 -7.70669,1.271223 -11.16076,2.806325 3.45444,-1.536575 7.21253,-2.509509 11.16076,-2.806325 z m 2.57411,45.012237 c 3.11486,0 5.63997,2.52511 5.63997,5.63997 0,3.11485 -2.52511,5.63997 -5.63997,5.63997 -3.11486,0 -5.63997,-2.52512 -5.63997,-5.63997 0,-3.11486 2.52511,-5.63997 5.63997,-5.63997 z m -13.73487,19.64604 c 3.45407,1.535104 7.21298,2.509204 11.16076,2.806324 -3.94823,-0.29682 -7.70632,-1.26975 -11.16076,-2.806324 z"
         style="fill:#f9f9f9;stroke-width:3.156"
         id="path8" />
      <path
         d="m 66.326921,45.345194 a 5.6399685,5.6399685 0 0 0 -5.63997,5.639969 5.6399685,5.6399685 0 0 0 5.63997,5.639969 5.6399685,5.6399685 0 0 0 5.63997,-5.639969 5.6399685,5.6399685 0 0 0 -5.63997,-5.639969 z"
         style="fill:#f9f9f9;stroke-width:0.526"
         id="path9" />
    </g>
  </g>
</svg>
